<svg width="451" height="188" viewBox="0 0 451 188" fill="inherit" xmlns="http://www.w3.org/2000/svg">
<path d="M98.893 117.923V12.3527H83.6245L0 125.935V140.31H73.5238V169.766H98.893V140.31H116.511V117.923H98.893ZM74.2285 117.923H48.1546C42.7518 117.923 37.584 117.923 32.1813 118.159C35.235 114.388 38.0538 110.618 41.1075 106.612L65.0674 73.6213C68.356 69.3796 71.4097 64.9023 74.9332 59.2467C74.2285 66.3162 74.2285 71.7361 74.2285 78.8055V117.923Z" fill="inherit"/>
<path d="M433.381 117.923V12.3527H418.113L334.488 125.935V140.31H408.012V169.766H433.381V140.31H450.999V117.923H433.381ZM408.717 117.923H382.643C377.24 117.923 372.072 117.923 366.67 118.159C369.723 114.388 372.542 110.618 375.596 106.612L399.556 73.6213C402.844 69.3796 405.898 64.9023 409.421 59.2467C408.717 66.3162 408.717 71.7361 408.717 78.8055V117.923Z" fill="inherit"/>
<path d="M228.992 43.8452C256.926 43.5393 277.305 66.3426 278.729 90.0166C279.201 96.8148 278.283 103.638 276.029 110.069C273.774 116.5 270.232 122.404 265.619 127.419C261.005 132.435 255.418 136.456 249.197 139.239C242.976 142.021 236.253 143.505 229.439 143.601C201.776 143.601 179.044 121.574 178.95 94.0054C178.844 66.8838 200.459 43.5863 228.992 43.8452Z" fill="#FCA11A"/>
<path d="M276.445 61.5302C277.857 61.5302 279.116 61.6361 280.363 61.5302C282.509 61.408 284.569 60.6406 286.271 59.3284C287.974 58.0162 289.241 56.2204 289.906 54.1762C292.53 47.4811 297.236 43.2687 304.696 43.0216C306.414 43.0216 308.167 43.7864 309.897 44.1982L310.026 45.0572C309.444 45.5474 308.789 45.9443 308.085 46.2338C302.978 47.4105 300.284 50.458 300.166 55.8588C300.196 61.0268 298.377 66.035 295.036 69.9784C293.751 71.5177 292.166 72.7789 290.378 73.6853C288.59 74.5916 286.635 75.1239 284.635 75.2498C284.111 75.1974 283.606 75.0286 283.156 74.7558C282.706 74.483 282.323 74.1131 282.034 73.6731C280.081 70.2255 278.351 66.6133 276.598 63.0833C276.468 62.5764 276.417 62.0527 276.445 61.5302Z" fill="#FCA11A"/>
<path d="M228.216 0.180121C226.404 7.11054 227.416 9.59324 233.723 14.1233C240.03 18.6534 243.924 24.2777 242.854 32.4201C242.771 33.0908 242.548 33.7497 242.442 34.4204C242.018 37.1149 240.736 38.1503 237.806 37.6914C233.817 37.0796 229.746 37.0325 225.427 36.7266C225.733 36.15 226.063 35.4323 226.475 34.7616C229.616 29.7491 229.569 25.7485 225.769 21.1832C220.768 15.1941 220.591 7.41646 224.051 2.35691C225.533 0.14482 226.404 -0.314068 228.216 0.180121Z" fill="#FCA11A"/>
<path d="M280.423 118.527C280.979 119.152 281.479 119.825 281.917 120.539C284.518 125.834 290.083 126.975 295.413 125.939C302.473 124.575 310.992 130.105 311.792 137.553C311.719 138.088 311.573 138.611 311.357 139.106C310.561 138.553 309.802 137.947 309.086 137.294C307.893 135.864 306.268 134.862 304.455 134.437C302.642 134.013 300.741 134.189 299.037 134.941C294.578 136.776 290.342 139.141 285.188 138.8C282.86 138.675 280.581 138.079 278.49 137.048C276.398 136.016 274.538 134.571 273.022 132.799C272.703 132.424 272.478 131.98 272.363 131.501C272.249 131.023 272.249 130.524 272.363 130.046C274.869 126.234 277.599 122.527 280.423 118.527Z" fill="#FCA11A"/>
<path d="M285.117 89.2047C286.706 89.9577 287.553 90.2637 288.329 90.7226C292.789 93.3818 296.907 92.864 301.178 89.9695C303.986 88.1174 307.024 86.6419 310.215 85.5806C314.486 84.1098 321.652 87.6515 322.899 91.6639C322.25 91.6918 321.599 91.6524 320.958 91.5462C316.11 90.1931 312.627 91.4403 309.78 95.5233C306.65 100.018 303.202 104.16 297.66 105.819C293.852 107.123 289.684 106.873 286.059 105.125C285.494 104.842 285.188 103.548 285.164 102.771C285.07 98.5237 285.117 94.3231 285.117 89.2047Z" fill="#FCA11A"/>
<path d="M275.505 10.8287C274.328 12.1936 273.787 12.8525 273.222 13.4761C270.245 16.7354 269.893 21.0302 271.693 25.1602C273.117 28.4313 274.681 31.9024 274.94 35.3852C275.197 38.2215 274.708 41.0755 273.524 43.6653C272.339 46.255 270.5 48.4909 268.186 50.1521C267.9 50.3698 267.568 50.5191 267.215 50.5885C266.862 50.6578 266.498 50.6454 266.151 50.5521C262.256 47.94 258.456 45.1984 254.479 42.3862C254.888 42.0508 255.321 41.7441 255.773 41.4684C261.374 38.6327 263.433 34.3262 262.35 27.9841C261.686 25.9601 261.526 23.8045 261.884 21.7045C262.242 19.6046 263.108 17.6239 264.405 15.9344C265.703 14.2449 267.393 12.8978 269.33 12.0101C271.266 11.1223 273.39 10.7208 275.517 10.8405L275.505 10.8287Z" fill="#FCA11A"/>
<path d="M178.08 67.6368C175.973 64.1069 173.997 60.8829 169.843 60.3417C168.313 60.1222 166.76 60.1222 165.231 60.3417C157.477 61.5771 150.852 58.4002 147.863 51.7287C147.387 50.1943 147.056 48.6185 146.875 47.0221C147.655 47.4242 148.399 47.8926 149.099 48.4223C152.735 52.2111 156.806 53.0465 161.512 50.6697C167.101 47.8575 172.844 46.1161 178.915 48.7165C181.248 49.8776 183.433 51.3156 185.422 52.9994C186.881 54.1055 186.928 55.3527 185.657 56.9882C183.08 60.2828 180.762 63.8245 178.08 67.6368Z" fill="#FCA11A"/>
<path d="M233.181 150.508C228.05 156.956 230.686 162.086 234.581 167.498C239.629 174.558 237.322 183.571 231.051 187.266C230.859 186.533 230.772 185.776 230.792 185.019C231.969 178.876 230.933 175.911 225.827 172.652C221.842 170.232 218.744 166.593 216.99 162.274C215.705 158.671 215.594 154.754 216.672 151.084C216.837 150.402 217.849 149.378 218.378 149.413C223.003 149.637 227.65 150.072 233.181 150.508Z" fill="#FCA11A"/>
<path d="M149.145 141.083C149.839 140.674 150.572 140.335 151.333 140.071C155.734 138.988 158.252 135.917 158.546 131.093C158.876 125.528 159.923 120.08 164.17 116.197C166.582 113.985 169.854 112.667 172.842 111.184C173.36 110.926 174.878 111.655 175.195 112.361C176.972 115.703 178.455 119.197 180.184 122.574C181.055 124.269 180.573 125.057 178.82 124.998C173.007 124.833 170.489 128.681 168.453 133.235C165.406 140.047 159.805 143.824 153.286 143.318C151.848 143.046 150.447 142.607 149.109 142.012L149.145 141.083Z" fill="#FCA11A"/>
<path d="M197.823 45.3512C197.764 44.0687 197.681 43.2921 197.693 42.5273C197.787 37.6325 195.34 34.4908 190.904 32.82C185.621 30.808 181.667 27.4663 180.02 21.9478C179.102 18.8768 178.926 15.7116 181.126 12.7936C181.92 14.8341 182.889 16.8024 184.02 18.6768C186.574 22.2067 190.527 22.5597 194.481 22.7597C198.331 22.9405 202.027 24.3239 205.05 26.7154C208.072 29.1069 210.269 32.3859 211.33 36.0911C211.989 38.4444 211.624 39.621 209.177 40.4564C206.012 41.6331 203.059 43.351 199.999 44.7982C199.292 45.0481 198.563 45.2332 197.823 45.3512V45.3512Z" fill="#FCA11A"/>
<path d="M277.894 173.452C277.423 172.923 276.717 172.452 276.541 171.84C275.282 166.816 273.152 164.922 268.14 163.98C264.217 163.382 260.355 162.441 256.597 161.168C252.114 159.474 249.396 155.732 247.831 151.237C246.807 148.284 247.372 147.507 250.302 146.225C253.749 144.719 257.067 142.918 260.621 141.165C260.8 141.703 260.919 142.26 260.974 142.824C260.868 148.59 263.845 152.131 269.046 154.096C274.646 156.214 278.247 160.121 279.141 166.075C279.482 168.428 278.965 170.781 278.847 173.135L277.894 173.452Z" fill="#FCA11A"/>
<path d="M171.572 96.3117C166.183 92.7817 161.547 93.4289 156.781 97.1C150.192 102.183 143.332 102.171 137.52 97.4765C136.763 96.7091 136.251 95.7345 136.049 94.6761C142.979 96.9117 147.121 94.0525 150.733 88.5811C154.757 82.5096 160.594 79.0974 168.254 79.8034C172.419 80.1917 173.148 80.8976 172.807 84.9806C172.513 88.6517 172.019 92.264 171.572 96.3117Z" fill="#FCA11A"/>
<path d="M203.318 144.919C197.082 147.59 195.67 152.237 196.446 158.062C197.223 163.886 195.893 168.887 191.234 172.687C190.225 173.619 189.033 174.329 187.735 174.775C186.436 175.221 185.059 175.391 183.691 175.276C184.014 174.652 184.409 174.067 184.868 173.535C189.186 170.064 188.927 164.651 187.021 161.039C184.856 156.92 183.491 152.638 184.021 147.931C184.381 143.748 186.382 139.878 189.586 137.165C190.081 136.741 191.198 136.341 191.575 136.6C195.387 139.165 199.105 141.895 203.318 144.919Z" fill="#FCA11A"/>
</svg>
