<svg width="34" height="34" viewBox="0 0 34 34" fill="none" xmlns="http://www.w3.org/2000/svg">
<path d="M17.0002 31.1668C24.8242 31.1668 31.1668 24.8242 31.1668 17.0002C31.1668 9.17613 24.8242 2.8335 17.0002 2.8335C9.17613 2.8335 2.8335 9.17613 2.8335 17.0002C2.8335 24.8242 9.17613 31.1668 17.0002 31.1668Z" fill="#CCD5E8"/>
<path d="M12.75 11.8726H19.3865C20.8577 11.8726 22.051 13.1966 22.051 14.537C22.051 16.0081 20.8577 17.2014 19.3865 17.2014H12.75V11.8726Z" stroke="#2E4182" stroke-width="1.5" stroke-miterlimit="10" stroke-linecap="round" stroke-linejoin="round"/>
<path d="M12.75 17.1851H20.3346C22.0183 17.1851 23.375 18.3783 23.375 19.8495C23.375 21.3206 22.0183 22.5139 20.3346 22.5139H12.75V17.1851Z" stroke="#2E4182" stroke-width="1.5" stroke-miterlimit="10" stroke-linecap="round" stroke-linejoin="round"/>
<path d="M17.3921 22.498V25.1625" stroke="#2E4182" stroke-width="1.5" stroke-miterlimit="10" stroke-linecap="round" stroke-linejoin="round"/>
<path d="M14.0742 22.498V25.1625" stroke="#2E4182" stroke-width="1.5" stroke-miterlimit="10" stroke-linecap="round" stroke-linejoin="round"/>
<path d="M17.3921 9.2085V11.8729" stroke="#2E4182" stroke-width="1.5" stroke-miterlimit="10" stroke-linecap="round" stroke-linejoin="round"/>
<path d="M14.0742 9.2085V11.8729" stroke="#2E4182" stroke-width="1.5" stroke-miterlimit="10" stroke-linecap="round" stroke-linejoin="round"/>
<path d="M15.2673 11.8726H10.625" stroke="#2E4182" stroke-width="1.5" stroke-miterlimit="10" stroke-linecap="round" stroke-linejoin="round"/>
<path d="M15.2673 22.498H10.625" stroke="#2E4182" stroke-width="1.5" stroke-miterlimit="10" stroke-linecap="round" stroke-linejoin="round"/>
</svg>
