<svg width="25" height="25" viewBox="0 0 25 25" fill="inherit" xmlns="http://www.w3.org/2000/svg">
<path d="M13.65 7C13.65 6.64101 13.359 6.35 13 6.35C12.641 6.35 12.35 6.64101 12.35 7L13.65 7ZM12.5404 18.4596C12.7942 18.7135 13.2058 18.7135 13.4596 18.4596L17.5962 14.323C17.85 14.0692 17.85 13.6576 17.5962 13.4038C17.3424 13.15 16.9308 13.15 16.677 13.4038L13 17.0808L9.32305 13.4038C9.0692 13.15 8.65765 13.15 8.40381 13.4038C8.14997 13.6576 8.14997 14.0692 8.40381 14.323L12.5404 18.4596ZM12.35 7L12.35 18L13.65 18L13.65 7L12.35 7Z" fill="inherit"/>
</svg>
