<svg width="30" height="30" viewBox="0 0 30 30" fill="inherit" xmlns="http://www.w3.org/2000/svg">
<path fill-rule="evenodd" clip-rule="evenodd" d="M15 27.5C21.875 27.5 27.5 21.875 27.5 15C27.5 8.125 21.875 2.5 15 2.5C8.125 2.5 2.5 8.125 2.5 15C2.5 21.875 8.125 27.5 15 27.5ZM19.0682 10.9322C19.3611 11.2251 19.3611 11.7 19.0682 11.9929L16.0611 15L19.0682 18.0072C19.3611 18.3001 19.3611 18.775 19.0682 19.0679C18.7753 19.3607 18.3005 19.3607 18.0076 19.0679L15.0004 16.0607L11.9932 19.0679C11.7003 19.3607 11.2255 19.3607 10.9326 19.0679C10.6397 18.775 10.6397 18.3001 10.9326 18.0072L13.9397 15L10.9326 11.9929C10.6397 11.7 10.6397 11.2251 10.9326 10.9322C11.2255 10.6393 11.7003 10.6393 11.9932 10.9322L15.0004 13.9394L18.0076 10.9322C18.3005 10.6393 18.7753 10.6393 19.0682 10.9322Z" fill="inherit"/>
</svg>
