<svg width="18" height="18" viewBox="0 0 18 18" fill="none" xmlns="http://www.w3.org/2000/svg">
<path d="M3.96018 13.9875L4.38768 12.135C4.48518 11.7 4.31268 11.0925 3.99768 10.7775L2.13768 8.91748C1.04268 7.82248 1.39518 6.71248 2.92518 6.45748L5.31768 6.05998C5.71518 5.99248 6.19518 5.63998 6.37518 5.27248L7.69518 2.63248C8.40768 1.19998 9.57768 1.19998 10.2977 2.63248L11.6177 5.27248C11.7002 5.44498 11.8577 5.60998 12.0302 5.75248" stroke="#FCA11A" stroke-width="1.5" stroke-linecap="round" stroke-linejoin="round"/>
<path d="M15.0746 6.45752C16.6046 6.71252 16.9646 7.82252 15.8621 8.91752L14.0021 10.7775C13.6871 11.0925 13.5146 11.7 13.6121 12.135L14.1446 14.4375C14.5646 16.26 13.5971 16.965 11.9846 16.0125L9.74215 14.685C9.33715 14.445 8.66965 14.445 8.25715 14.685L6.01465 16.0125" stroke="#FCA11A" stroke-width="1.5" stroke-linecap="round" stroke-linejoin="round"/>
<path d="M16.5 1.5L1.5 16.5" stroke="#FCA11A" stroke-width="1.5" stroke-linecap="round" stroke-linejoin="round"/>
</svg>
