<svg width="14" height="15" viewBox="0 0 14 15" fill="none" xmlns="http://www.w3.org/2000/svg">
<path opacity="0.6" d="M7.24959 0.750488C5.41643 0.750488 5.18637 0.758504 4.46638 0.791269C3.7478 0.824174 3.25731 0.937937 2.82813 1.10485C2.38418 1.27726 2.00759 1.50788 1.63241 1.88319C1.25694 2.25837 1.02632 2.63496 0.853356 3.07876C0.686015 3.50808 0.57211 3.99871 0.539767 4.717C0.507705 5.43698 0.499268 5.66718 0.499268 7.50032C0.499268 9.33347 0.507424 9.56282 0.540048 10.2828C0.573095 11.0014 0.686859 11.4919 0.853638 11.921C1.02618 12.365 1.2568 12.7416 1.63213 13.1167C2.00717 13.4922 2.38376 13.7234 2.82742 13.8958C3.25689 14.0627 3.74752 14.1765 4.46596 14.2094C5.18595 14.2421 5.41587 14.2502 7.24889 14.2502C9.08219 14.2502 9.31155 14.2421 10.0315 14.2094C10.7501 14.1765 11.2412 14.0627 11.6706 13.8958C12.1144 13.7234 12.4905 13.4922 12.8655 13.1167C13.241 12.7416 13.4716 12.365 13.6446 11.9212C13.8105 11.4919 13.9244 11.0012 13.9582 10.2829C13.9905 9.56296 13.9989 9.33347 13.9989 7.50032C13.9989 5.66718 13.9905 5.43712 13.9582 4.71714C13.9244 3.99856 13.8105 3.50808 13.6446 3.0789C13.4716 2.63496 13.241 2.25837 12.8655 1.88319C12.4901 1.50774 12.1146 1.27712 11.6702 1.10485C11.2399 0.937937 10.7491 0.824174 10.0306 0.791269C9.31057 0.758504 9.08135 0.750488 7.24763 0.750488H7.24959ZM6.64407 1.96686C6.82379 1.96658 7.02432 1.96686 7.24959 1.96686C9.05182 1.96686 9.26543 1.97333 9.97712 2.00568C10.6352 2.03577 10.9924 2.14574 11.2304 2.23812C11.5453 2.36046 11.7699 2.50671 12.006 2.74296C12.2423 2.9792 12.3885 3.20419 12.5111 3.51919C12.6035 3.75684 12.7136 4.11402 12.7436 4.77212C12.7759 5.48367 12.783 5.69741 12.783 7.49878C12.783 9.30014 12.7759 9.51388 12.7436 10.2254C12.7135 10.8835 12.6035 11.2407 12.5111 11.4784C12.3888 11.7934 12.2423 12.0176 12.006 12.2538C11.7698 12.49 11.5455 12.6362 11.2304 12.7586C10.9927 12.8514 10.6352 12.9611 9.97712 12.9912C9.26557 13.0235 9.05182 13.0305 7.24959 13.0305C5.44723 13.0305 5.23362 13.0235 4.52207 12.9912C3.86395 12.9608 3.50677 12.8508 3.2687 12.7584C2.9537 12.6361 2.7287 12.4899 2.49246 12.2536C2.25621 12.0174 2.10996 11.7929 1.98734 11.4778C1.89495 11.2402 1.78484 10.883 1.75489 10.2249C1.72255 9.51332 1.71608 9.29957 1.71608 7.49709C1.71608 5.6946 1.72255 5.48198 1.75489 4.77044C1.78498 4.11233 1.89495 3.75515 1.98734 3.51722C2.10968 3.20222 2.25621 2.97723 2.49246 2.74099C2.7287 2.50474 2.9537 2.3585 3.2687 2.23587C3.50663 2.14306 3.86395 2.03338 4.52207 2.00315C5.14475 1.97502 5.38606 1.96658 6.64407 1.96518V1.96686ZM10.8526 3.08762C10.6924 3.08762 10.5358 3.13513 10.4026 3.22414C10.2694 3.31316 10.1656 3.43968 10.1043 3.5877C10.043 3.73572 10.027 3.89859 10.0582 4.05572C10.0895 4.21285 10.1667 4.35717 10.28 4.47044C10.3933 4.58371 10.5376 4.66083 10.6948 4.69205C10.8519 4.72327 11.0148 4.70719 11.1628 4.64584C11.3108 4.58449 11.4373 4.48063 11.5263 4.34739C11.6152 4.21416 11.6627 4.05753 11.6626 3.89732C11.6626 3.45014 11.2998 3.08734 10.8526 3.08734V3.08762ZM7.24959 4.034C5.33529 4.034 3.78324 5.58604 3.78324 7.50032C3.78324 9.4146 5.33529 10.9659 7.24959 10.9659C9.1639 10.9659 10.7155 9.4146 10.7155 7.50032C10.7155 5.58604 9.16375 4.034 7.24945 4.034H7.24959ZM7.24959 5.25038C8.49214 5.25038 9.49956 6.25765 9.49956 7.50032C9.49956 8.74286 8.49214 9.75027 7.24959 9.75027C6.00691 9.75027 4.99963 8.74286 4.99963 7.50032C4.99963 6.25765 6.00691 5.25038 7.24959 5.25038Z" fill="white"/>
</svg>
