<svg width="161" height="33" viewBox="0 0 161 33" fill="none" xmlns="http://www.w3.org/2000/svg">
<path d="M116.28 16.6799C116.284 18.3452 115.794 19.9743 114.872 21.3612C113.95 22.748 112.638 23.8304 111.101 24.4713C109.564 25.1122 107.871 25.283 106.237 24.962C104.603 24.641 103.101 23.8426 101.921 22.6679C100.74 21.4931 99.9347 19.9947 99.6059 18.3622C99.2771 16.7296 99.4399 15.0363 100.073 13.4962C100.707 11.9562 101.783 10.6386 103.166 9.71008C104.548 8.78159 106.175 8.28389 107.84 8.27993C108.947 8.27334 110.044 8.48581 111.069 8.90512C112.093 9.32443 113.024 9.94228 113.809 10.7231C114.593 11.5039 115.215 12.4322 115.64 13.4546C116.064 14.4769 116.282 15.5731 116.28 16.6799Z" fill="#E4915C"/>
<path d="M49.2001 14.89C50.4777 15.3028 51.569 16.1526 52.2823 17.2901C52.9955 18.4276 53.2851 19.7801 53.1001 21.11C52.8801 24.24 50.5401 26.58 46.9401 26.9C44.1401 27.15 41.3001 26.95 38.3801 26.95V5.37997C41.6901 5.37997 45.0501 4.65997 48.3301 5.78997C49.1994 6.042 49.9777 6.53915 50.5718 7.22193C51.1659 7.90471 51.5507 8.74421 51.6801 9.63997C51.8884 10.5443 51.8074 11.4913 51.4486 12.3472C51.0897 13.203 50.4711 13.9246 49.6801 14.41C49.5096 14.5591 49.3493 14.7195 49.2001 14.89ZM42.3101 16.51V24.12C43.9162 23.9997 45.5129 23.7759 47.0901 23.45C48.6101 23.04 49.1601 21.81 49.0901 19.85C49.0201 18.24 48.4001 17.27 46.8601 16.96C45.3534 16.7222 43.8342 16.5719 42.3101 16.51ZM42.2601 13.75C43.6229 13.655 44.9787 13.478 46.3201 13.22C46.849 13.0638 47.3021 12.7188 47.5933 12.2506C47.8846 11.7823 47.9938 11.2234 47.9001 10.68C47.9178 10.1458 47.7311 9.62489 47.3781 9.22355C47.025 8.82221 46.5322 8.57059 46.0001 8.51997C44.7518 8.37363 43.4969 8.29019 42.2401 8.26997L42.2601 13.75Z" fill="#91F2DD"/>
<path d="M76.3401 5.18999C79.3401 5.18999 82.1801 4.97999 85.0301 5.24999C88.3301 5.55999 90.0301 7.24999 90.6001 9.92999C91.1601 12.83 89.9801 15.22 87.1501 16.93L86.7001 17.22L93.0901 27.08C91.5501 27.08 90.2501 27.14 88.9601 27.08C88.6601 27.08 88.3301 26.59 88.1201 26.27C86.6901 24.07 85.1801 21.91 83.9101 19.62C83.6237 18.9514 83.0974 18.4143 82.4348 18.1145C81.7722 17.8146 81.0213 17.7738 80.3301 18V27H76.3301L76.3401 5.18999ZM80.2701 8.44999C80.2701 10.28 80.2701 12.03 80.2701 13.77C80.2701 14.02 80.6701 14.49 80.8701 14.48C82.2729 14.461 83.6715 14.3205 85.0501 14.06C86.2601 13.79 86.6201 12.68 86.6901 11.52C86.7856 11.0008 86.7058 10.4646 86.4632 9.99573C86.2206 9.52686 85.829 9.15196 85.3501 8.92999C83.7385 8.28326 81.9743 8.11656 80.2701 8.44999Z" fill="#91F2DD"/>
<path d="M73.5702 27.07C72.3502 27.07 71.1902 27.07 70.0402 27.07C69.8564 27.0174 69.6866 26.9246 69.543 26.7984C69.3995 26.6721 69.2858 26.5155 69.2102 26.34C68.8222 25.4236 68.4883 24.4854 68.2102 23.53C68.1727 23.2449 68.025 22.9858 67.7989 22.8083C67.5727 22.6307 67.286 22.5488 67.0002 22.58C65.0802 22.58 63.1702 22.58 61.2502 22.58C61.1089 22.5573 60.9645 22.5629 60.8254 22.5964C60.6862 22.63 60.5552 22.6909 60.4398 22.7756C60.3245 22.8603 60.2271 22.967 60.1533 23.0897C60.0795 23.2123 60.0309 23.3484 60.0102 23.49C59.7477 24.4536 59.4135 25.3963 59.0102 26.31C58.905 26.4939 58.7595 26.6516 58.5845 26.7711C58.4096 26.8906 58.2098 26.9689 58.0002 27C56.8902 27.1 55.7602 27 54.4302 27L56.1502 22.6C58.3802 16.99 60.5902 11.38 62.8502 5.78997C62.9583 5.57804 63.1138 5.39383 63.3045 5.25163C63.4953 5.10944 63.7162 5.01306 63.9502 4.96997C64.1887 4.97897 64.4214 5.04551 64.6286 5.16392C64.8358 5.28232 65.0113 5.44908 65.1402 5.64997C67.9402 12.55 70.6802 19.47 73.4302 26.39C73.4995 26.6114 73.5464 26.8392 73.5702 27.07ZM64.2202 12.18L63.9102 12.12L61.4402 19.52H66.7002C65.8402 17 65.0002 14.57 64.2202 12.18Z" fill="#91F2DD"/>
<path d="M35.6701 27.08C34.3601 27.08 33.2401 27.13 32.1301 27.08C31.9482 27.0336 31.7783 26.9489 31.6317 26.8316C31.4851 26.7144 31.3652 26.5672 31.2801 26.4C31.0072 25.8379 30.7766 25.2563 30.5901 24.66C29.6901 22.27 30.3901 22.66 27.6601 22.66C26.1701 22.66 24.6601 22.59 23.1701 22.66C22.7701 22.66 22.3601 23.14 22.0301 23.47C21.8817 23.7186 21.7832 23.9937 21.7401 24.2799C20.6901 27.3799 20.1001 27.7 16.5601 26.91C17.3501 24.91 18.1401 22.9799 18.9201 21.0099L24.8301 6.00995C25.0601 5.41995 25.2401 4.94995 26.1001 4.94995C26.9601 4.94995 27.1001 5.42995 27.3601 6.01995L35.3601 26.02C35.4701 26.33 35.5301 26.61 35.6701 27.08ZM23.4601 19.5299H28.7301L26.2201 12.08H25.9701L23.4601 19.5299Z" fill="#91F2DD"/>
<path d="M142 4.99998C143.197 4.95077 144.395 4.96746 145.59 5.04998C145.95 5.04998 146.41 5.62998 146.59 6.04998C148.03 10.14 149.4 14.24 150.79 18.34C150.93 18.76 151.08 19.17 151.35 19.92C152.59 16.48 153.71 13.4 154.81 10.33C155.36 8.79998 155.87 7.24998 156.46 5.73998C156.535 5.57014 156.648 5.4197 156.79 5.30012C156.932 5.18054 157.1 5.09499 157.28 5.04998C158.42 4.96998 159.58 5.04998 160.91 5.04998C160.16 7.04998 159.49 8.85998 158.79 10.68C156.79 15.84 154.79 21 152.79 26.17C152.49 26.96 152.17 27.36 151.21 27.37C150.25 27.38 149.94 26.93 149.66 26.15C147.22 19.4166 144.76 12.7 142.28 5.99998C142.17 5.73998 142.09 5.42998 142 4.99998Z" fill="#91F2DD"/>
<path d="M9.54009 8.50002H0.540089V5.27002H15.0001C14.8624 5.97882 14.6547 6.67221 14.3801 7.34002C11.7601 12.34 9.10009 17.34 6.45009 22.34C6.25009 22.73 6.06009 23.14 5.78009 23.72H15.1701V27H0.340088C0.519888 26.243 0.757244 25.5009 1.05009 24.78C3.65009 19.78 6.28009 14.78 8.90009 9.86002C9.10009 9.47002 9.28009 9.06002 9.54009 8.50002Z" fill="#91F2DD"/>
<path d="M141.39 5.06995V8.27995H134.18V26.8599H130.18V25.3299C130.18 20.1699 130.18 14.9999 130.18 9.83995C130.18 8.50995 129.78 8.20995 128.56 8.27995C126.82 8.37995 125.07 8.27995 123.22 8.27995V5.06995H141.39Z" fill="#91F2DD"/>
<path d="M116 11.3599C116.559 11.4039 117.116 11.2524 117.575 10.9314C118.035 10.6104 118.369 10.1398 118.52 9.59994C118.687 9.10731 119.039 8.69914 119.502 8.46203C119.965 8.22493 120.503 8.17755 121 8.32994C120.64 9.15994 120.25 10.0199 119.9 10.8899C119.71 11.3499 119.69 11.9499 119.38 12.2599C118.846 12.8058 118.197 13.2259 117.48 13.4899C117.3 13.5499 116.79 12.6799 116.48 12.2299C116.27 11.9999 116.18 11.7899 116 11.3599Z" fill="#E4915C"/>
<path d="M107.62 7.17998C107.831 6.68868 107.902 6.14879 107.826 5.61958C107.751 5.09037 107.53 4.59228 107.19 4.17998C106.37 3.04998 106.51 1.99998 107.64 0.849976C107.16 2.38998 108.22 2.97997 109.12 3.65998C109.216 3.73636 109.304 3.82361 109.38 3.91998C110.13 4.79998 110.66 5.91998 109.94 6.83998C109.6 7.28998 108.42 7.08998 107.62 7.17998Z" fill="#E4915C"/>
<path d="M99.2701 12.24C99.012 11.7844 98.6136 11.4244 98.1343 11.2136C97.6549 11.0028 97.1203 10.9524 96.6101 11.07C96.3064 11.1135 95.997 11.0933 95.7016 11.0106C95.4062 10.928 95.1312 10.7848 94.8942 10.59C94.6571 10.3953 94.4632 10.1534 94.3248 9.87966C94.1864 9.60592 94.1064 9.30635 94.0901 9.00003C95.0301 9.91003 95.9501 9.71003 96.9701 9.26003C97.596 8.92932 98.3226 8.84341 99.0084 9.01901C99.6942 9.19462 100.29 9.61918 100.68 10.21L100 11.21L99.2701 12.24Z" fill="#E4915C"/>
<path d="M114.36 9.38997C114.258 9.36043 114.157 9.32367 114.06 9.27997L112.35 8.06997C112.819 7.79562 113.19 7.3801 113.409 6.88267C113.628 6.38525 113.684 5.83134 113.57 5.29997C113.48 4.10997 114.05 3.18997 115.67 2.71997C115.27 3.10001 115.016 3.60755 114.95 4.15516C114.884 4.70277 115.012 5.25615 115.31 5.71997C116 7.18997 115.65 8.22997 114.36 9.38997Z" fill="#FFC20E"/>
<path d="M121.81 24.26C120.81 23.26 119.91 23.55 118.9 23.99C118.273 24.3143 117.547 24.3915 116.866 24.2063C116.184 24.0212 115.597 23.5871 115.22 22.99L116.59 20.99C116.85 21.4665 117.258 21.8448 117.753 22.0669C118.248 22.2891 118.802 22.3429 119.33 22.22C120.71 22.08 121.49 22.76 121.81 24.26Z" fill="#E4915C"/>
<path d="M104.88 7.45994L102.69 8.45994C102.69 7.13994 101.88 6.56994 100.86 6.05994C100.398 5.88148 100.012 5.54668 99.7713 5.11371C99.5302 4.68075 99.4483 4.17698 99.54 3.68994C100.403 4.10444 101.296 4.45537 102.21 4.73994C102.894 4.83288 103.527 5.15057 104.011 5.64299C104.494 6.13541 104.8 6.7746 104.88 7.45994Z" fill="#FFC20E"/>
<path d="M107.82 26.22C108.091 27.2168 108.425 28.1954 108.82 29.15C109.143 29.6581 109.267 30.2672 109.169 30.8611C109.071 31.4549 108.759 31.9921 108.29 32.37C108.411 31.8554 108.35 31.3147 108.116 30.8404C107.883 30.3662 107.492 29.9878 107.01 29.77C106.939 29.7257 106.872 29.6755 106.81 29.62C105.92 28.81 105.28 27.72 105.86 26.62C106.12 26.2 107.4 26.3 107.82 26.22Z" fill="#E4915C"/>
<path d="M94.5701 24.8C95.0411 24.6185 95.4378 24.2846 95.697 23.8515C95.9562 23.4183 96.0628 22.9109 96.0001 22.41C96.0058 22.2464 96.0361 22.0846 96.0901 21.93C96.4101 20.82 97.0901 19.79 98.2101 19.84C98.7301 19.84 99.2101 21 99.7001 21.64L99.2301 21.56C98.5932 22.2177 97.9955 22.9123 97.4401 23.64C97.1802 24.1453 96.7474 24.5404 96.2206 24.7533C95.6938 24.9662 95.1081 24.9828 94.5701 24.8Z" fill="#E4915C"/>
<path d="M117.68 16.1199C118.77 16.8599 119.68 16.4499 120.58 15.8299C120.959 15.4934 121.452 15.3135 121.959 15.3265C122.466 15.3395 122.949 15.5444 123.31 15.8999L121.18 17.5299C121.05 17.6299 120.96 17.7799 120.84 17.8899C120 18.7099 118.91 19.2299 117.93 18.6299C117.46 18.3399 117.55 17.1499 117.38 16.3599L117.68 16.1199Z" fill="#FFC20E"/>
<path d="M111 25.87L112.75 25.02C113.457 25.7277 114.208 26.389 115 27C115.501 27.2605 115.898 27.6834 116.127 28.1994C116.356 28.7154 116.403 29.2939 116.26 29.84C116.014 29.3754 115.64 28.9904 115.184 28.7301C114.727 28.4698 114.205 28.3449 113.68 28.37C113.015 28.3219 112.386 28.0476 111.899 27.5928C111.411 27.138 111.094 26.5301 111 25.87Z" fill="#FFC20E"/>
<path d="M92.5 17.4C93.27 16.85 93.92 16.4 94.59 15.92C95.3285 15.339 96.1385 14.8551 97 14.48C97.87 14.19 98.57 14.54 98.28 15.72C98.2251 15.9626 98.2049 16.2117 98.22 16.46C97.08 16.87 96.13 17.19 95.22 17.56C94.8043 17.8136 94.3211 17.9342 93.835 17.9056C93.3489 17.877 92.8831 17.7006 92.5 17.4Z" fill="#FFC20E"/>
<path d="M101.36 23.9299L103.27 25.2199H102.89C102.65 26.0962 102.473 26.9885 102.36 27.8899C102.388 28.4953 102.187 29.089 101.799 29.5537C101.41 30.0185 100.861 30.3204 100.26 30.3999C100.652 30.0622 100.905 29.5909 100.97 29.0773C101.035 28.5637 100.906 28.0444 100.61 27.6199C100.275 27.0162 100.167 26.313 100.305 25.6367C100.442 24.9603 100.816 24.3551 101.36 23.9299Z" fill="#FFC20E"/>
</svg>
