<svg width="71" height="60" viewBox="0 0 71 60" fill="none" xmlns="http://www.w3.org/2000/svg">
<g filter="url(#filter0_d_429_1960)">
<rect x="21.3229" y="21.3229" width="28.3542" height="17.3542" rx="8.67708" fill="white" stroke="#D9D9D9" stroke-width="2.64583"/>
<path fill-rule="evenodd" clip-rule="evenodd" d="M39.6413 35.6715C42.9792 35.6715 45.6852 33.096 45.6852 29.919C45.6852 26.742 42.9792 24.1665 39.6413 24.1665C38.1453 24.1665 36.7763 24.6838 35.721 25.5407C34.6656 24.6838 33.2966 24.1666 31.8007 24.1666C28.4628 24.1666 25.7568 26.7421 25.7568 29.9191C25.7568 33.0961 28.4628 35.6716 31.8007 35.6716C33.2967 35.6716 34.6657 35.1543 35.7211 34.2974C36.7764 35.1542 38.1454 35.6715 39.6413 35.6715Z" fill="#ED0006"/>
<path fill-rule="evenodd" clip-rule="evenodd" d="M35.7212 34.2973C37.0208 33.2422 37.8448 31.6722 37.8448 29.919C37.8448 28.1658 37.0208 26.5958 35.7212 25.5406C36.7766 24.6838 38.1456 24.1665 39.6415 24.1665C42.9795 24.1665 45.6854 26.742 45.6854 29.919C45.6854 33.096 42.9795 35.6715 39.6415 35.6715C38.1456 35.6715 36.7766 35.1542 35.7212 34.2973Z" fill="#F9A000"/>
<path fill-rule="evenodd" clip-rule="evenodd" d="M35.7213 34.2972C37.0208 33.2421 37.8449 31.6721 37.8449 29.9189C37.8449 28.1657 37.0208 26.5956 35.7213 25.5405C34.4217 26.5956 33.5977 28.1657 33.5977 29.9189C33.5977 31.6721 34.4217 33.2421 35.7213 34.2972Z" fill="#FF5E00"/>
</g>
<defs>
<filter id="filter0_d_429_1960" x="0" y="0" width="71" height="60" filterUnits="userSpaceOnUse" color-interpolation-filters="sRGB">
<feFlood flood-opacity="0" result="BackgroundImageFix"/>
<feColorMatrix in="SourceAlpha" type="matrix" values="0 0 0 0 0 0 0 0 0 0 0 0 0 0 0 0 0 0 127 0" result="hardAlpha"/>
<feOffset/>
<feGaussianBlur stdDeviation="10"/>
<feComposite in2="hardAlpha" operator="out"/>
<feColorMatrix type="matrix" values="0 0 0 0 0 0 0 0 0 0 0 0 0 0 0 0 0 0 0.07 0"/>
<feBlend mode="normal" in2="BackgroundImageFix" result="effect1_dropShadow_429_1960"/>
<feBlend mode="normal" in="SourceGraphic" in2="effect1_dropShadow_429_1960" result="shape"/>
</filter>
</defs>
</svg>
