<svg width="28" height="28" viewBox="0 0 28 28" fill="none" xmlns="http://www.w3.org/2000/svg">
<path d="M25.1175 18.5849C24.9308 18.2699 24.4058 17.7799 23.0992 18.0133C22.3758 18.1416 21.6408 18.1999 20.9058 18.1649C18.1875 18.0483 15.7258 16.7999 14.0108 14.8749C12.4942 13.1833 11.5608 10.9783 11.5492 8.59827C11.5492 7.26827 11.8058 5.98493 12.3308 4.7716C12.8442 3.59327 12.4825 2.97493 12.2258 2.71827C11.9575 2.44993 11.3275 2.0766 10.0908 2.58993C5.31917 4.5966 2.3675 9.37993 2.7175 14.5016C3.0675 19.3199 6.45084 23.4383 10.9308 24.9899C12.0042 25.3633 13.1358 25.5849 14.3025 25.6316C14.4892 25.6433 14.6758 25.6549 14.8625 25.6549C18.7708 25.6549 22.4342 23.8116 24.7442 20.6733C25.5258 19.5883 25.3158 18.8999 25.1175 18.5849Z" fill="#E3E0C2"/>
</svg>
