<svg width="46" height="46" viewBox="0 0 46 46" fill="inherit" xmlns="http://www.w3.org/2000/svg">
    <path d="M22.9425 3.83334C12.3625 3.83334 3.77588 12.42 3.77588 23C3.77588 33.58 12.3625 42.1667 22.9425 42.1667C33.5225 42.1667 42.1092 33.58 42.1092 23C42.1092 12.42 33.5417 3.83334 22.9425 3.83334ZM28.6925 27.2742L23.1342 30.475C22.4442 30.8775 21.6775 31.0692 20.93 31.0692C20.1634 31.0692 19.4159 30.8775 18.7259 30.475C17.3459 29.67 16.5217 28.2517 16.5217 26.6417V20.2208C16.5217 18.63 17.3459 17.1925 18.7259 16.3875C20.1059 15.5825 21.7542 15.5825 23.1534 16.3875L28.7117 19.5883C30.0917 20.3933 30.9159 21.8117 30.9159 23.4217C30.9159 25.0317 30.0917 26.4692 28.6925 27.2742Z" fill="inherit"/>
</svg>
