<svg width="23" height="23" viewBox="0 0 23 23" fill="inherit" xmlns="http://www.w3.org/2000/svg">
<mask id="mask0_49_1710" style="mask-type:alpha" maskUnits="userSpaceOnUse" x="3" y="13" width="17" height="8">
<path fill-rule="evenodd" clip-rule="evenodd" d="M3.83325 13.8921H19.0132V20.9588H3.83325V13.8921Z" fill="white"/>
</mask>
<g mask="url(#mask0_49_1710)">
<path fill-rule="evenodd" clip-rule="evenodd" d="M11.4242 15.3296C7.34075 15.3296 5.27075 16.0311 5.27075 17.4159C5.27075 18.8131 7.34075 19.5213 11.4242 19.5213C15.5067 19.5213 17.5758 18.8198 17.5758 17.435C17.5758 16.0378 15.5067 15.3296 11.4242 15.3296M11.4242 20.9588C9.54683 20.9588 3.83325 20.9588 3.83325 17.4159C3.83325 14.2572 8.16588 13.8921 11.4242 13.8921C13.3016 13.8921 19.0133 13.8921 19.0133 17.435C19.0133 20.5937 14.6816 20.9588 11.4242 20.9588" fill="inherit"/>
</g>
<mask id="mask1_49_1710" style="mask-type:alpha" maskUnits="userSpaceOnUse" x="6" y="1" width="11" height="12">
<path fill-rule="evenodd" clip-rule="evenodd" d="M6.33447 1.91675H16.512V12.0929H6.33447V1.91675Z" fill="white"/>
</mask>
<g mask="url(#mask1_49_1710)">
<path fill-rule="evenodd" clip-rule="evenodd" d="M11.4242 3.28488C9.37242 3.28488 7.703 4.95334 7.703 7.00513C7.69629 9.05022 9.35325 10.7177 11.3964 10.7254L11.4242 11.4096V10.7254C13.475 10.7254 15.1435 9.05597 15.1435 7.00513C15.1435 4.95334 13.475 3.28488 11.4242 3.28488M11.4242 12.0929H11.3935C8.59329 12.0843 6.32492 9.80059 6.3345 7.00226C6.3345 4.19913 8.61725 1.91638 11.4242 1.91638C14.2302 1.91638 16.512 4.19913 16.512 7.00513C16.512 9.81113 14.2302 12.0929 11.4242 12.0929" fill="inherit"/>
</g>
</svg>
