<svg width="25" height="27" viewBox="0 0 25 27" fill="none" xmlns="http://www.w3.org/2000/svg">
<path d="M13.2603 6.60022L5.05034 15.2902C4.74034 15.6202 4.44034 16.2702 4.38034 16.7202L4.01034 19.9602C3.88034 21.1302 4.72034 21.9302 5.88034 21.7302L9.10034 21.1802C9.55034 21.1002 10.1803 20.7702 10.4903 20.4302L18.7003 11.7402C20.1203 10.2402 20.7603 8.53022 18.5503 6.44022C16.3503 4.37022 14.6803 5.10022 13.2603 6.60022Z" fill="transparent" stroke="inherit" stroke-width="1.5" stroke-miterlimit="10" stroke-linecap="round" stroke-linejoin="round"/>
<path d="M11.8896 8.0498C12.3196 10.8098 14.5596 12.9198 17.3396 13.1998" stroke="white" stroke-width="1.5" stroke-miterlimit="10" stroke-linecap="round" stroke-linejoin="round"/>
<path d="M16 14.25C18.8995 14.25 21.25 11.8995 21.25 9C21.25 6.10051 18.8995 3.75 16 3.75C13.1005 3.75 10.75 6.10051 10.75 9C10.75 11.8995 13.1005 14.25 16 14.25Z" fill="inherit"/>
<path d="M16 17.22C15.5875 17.22 15.25 16.9125 15.25 16.5V16.44C15.25 16.0275 15.5875 15.69 16 15.69C16.4125 15.69 16.75 16.0275 16.75 16.44C16.75 16.8525 16.4125 17.22 16 17.22ZM21.355 15.105C21.16 15.105 20.9725 15.03 20.8225 14.8875L20.725 14.79C20.4325 14.4975 20.4325 14.025 20.725 13.7325C21.0175 13.44 21.49 13.44 21.7825 13.7325L21.88 13.83C22.1725 14.1225 22.1725 14.595 21.88 14.8875C21.7375 15.03 21.55 15.105 21.355 15.105ZM10.645 15.105C10.45 15.105 10.2625 15.03 10.1125 14.8875C9.82 14.595 9.82 14.1225 10.1125 13.83L10.21 13.7325C10.5025 13.44 10.975 13.44 11.2675 13.7325C11.56 14.025 11.56 14.4975 11.2675 14.79L11.17 14.8875C11.0275 15.03 10.8325 15.105 10.645 15.105ZM23.5 9.75H23.44C23.0275 9.75 22.69 9.4125 22.69 9C22.69 8.5875 23.0275 8.25 23.44 8.25C23.8525 8.25 24.22 8.5875 24.22 9C24.22 9.4125 23.9125 9.75 23.5 9.75ZM8.56 9.75H8.5C8.0875 9.75 7.75 9.4125 7.75 9C7.75 8.5875 8.0875 8.25 8.5 8.25C8.9125 8.25 9.28 8.5875 9.28 9C9.28 9.4125 8.9725 9.75 8.56 9.75ZM21.2575 4.4925C21.0625 4.4925 20.875 4.4175 20.725 4.275C20.4325 3.9825 20.4325 3.51 20.725 3.2175L20.8225 3.12C21.115 2.8275 21.5875 2.8275 21.88 3.12C22.1725 3.4125 22.1725 3.885 21.88 4.1775L21.7825 4.275C21.64 4.4175 21.4525 4.4925 21.2575 4.4925ZM10.7425 4.4925C10.5475 4.4925 10.36 4.4175 10.21 4.275L10.1125 4.17C9.82 3.8775 9.82 3.405 10.1125 3.1125C10.405 2.82 10.8775 2.82 11.17 3.1125L11.2675 3.21C11.56 3.5025 11.56 3.975 11.2675 4.2675C11.125 4.4175 10.93 4.4925 10.7425 4.4925ZM16 2.28C15.5875 2.28 15.25 1.9725 15.25 1.56V1.5C15.25 1.0875 15.5875 0.75 16 0.75C16.4125 0.75 16.75 1.0875 16.75 1.5C16.75 1.9125 16.4125 2.28 16 2.28Z" fill="inherit"/>
</svg>
