<svg width="28" height="28" viewBox="0 0 28 28" fill="none" xmlns="http://www.w3.org/2000/svg">
<path d="M14.0002 22.1668C18.5105 22.1668 22.1668 18.5105 22.1668 14.0002C22.1668 9.48984 18.5105 5.8335 14.0002 5.8335C9.48984 5.8335 5.8335 9.48984 5.8335 14.0002C5.8335 18.5105 9.48984 22.1668 14.0002 22.1668Z" fill="#EFDA1D"/>
<path d="M13.9998 26.7865C13.3582 26.7865 12.8332 26.3082 12.8332 25.6665V25.5732C12.8332 24.9315 13.3582 24.4065 13.9998 24.4065C14.6415 24.4065 15.1665 24.9315 15.1665 25.5732C15.1665 26.2148 14.6415 26.7865 13.9998 26.7865ZM22.3298 23.4965C22.0265 23.4965 21.7348 23.3798 21.5015 23.1582L21.3498 23.0065C20.8948 22.5515 20.8948 21.8165 21.3498 21.3615C21.8048 20.9065 22.5398 20.9065 22.9948 21.3615L23.1465 21.5132C23.6015 21.9682 23.6015 22.7032 23.1465 23.1582C22.9248 23.3798 22.6332 23.4965 22.3298 23.4965ZM5.66984 23.4965C5.3665 23.4965 5.07484 23.3798 4.8415 23.1582C4.3865 22.7032 4.3865 21.9682 4.8415 21.5132L4.99317 21.3615C5.44817 20.9065 6.18317 20.9065 6.63817 21.3615C7.09317 21.8165 7.09317 22.5515 6.63817 23.0065L6.4865 23.1582C6.26484 23.3798 5.9615 23.4965 5.66984 23.4965ZM25.6665 15.1665H25.5732C24.9315 15.1665 24.4065 14.6415 24.4065 13.9998C24.4065 13.3582 24.9315 12.8332 25.5732 12.8332C26.2148 12.8332 26.7865 13.3582 26.7865 13.9998C26.7865 14.6415 26.3082 15.1665 25.6665 15.1665ZM2.4265 15.1665H2.33317C1.6915 15.1665 1.1665 14.6415 1.1665 13.9998C1.1665 13.3582 1.6915 12.8332 2.33317 12.8332C2.97484 12.8332 3.5465 13.3582 3.5465 13.9998C3.5465 14.6415 3.06817 15.1665 2.4265 15.1665ZM22.1782 6.98817C21.8748 6.98817 21.5832 6.8715 21.3498 6.64984C20.8948 6.19484 20.8948 5.45984 21.3498 5.00484L21.5015 4.85317C21.9565 4.39817 22.6915 4.39817 23.1465 4.85317C23.6015 5.30817 23.6015 6.04317 23.1465 6.49817L22.9948 6.64984C22.7732 6.8715 22.4815 6.98817 22.1782 6.98817ZM5.8215 6.98817C5.51817 6.98817 5.2265 6.8715 4.99317 6.64984L4.8415 6.4865C4.3865 6.0315 4.3865 5.2965 4.8415 4.8415C5.2965 4.3865 6.0315 4.3865 6.4865 4.8415L6.63817 4.99317C7.09317 5.44817 7.09317 6.18317 6.63817 6.63817C6.4165 6.8715 6.11317 6.98817 5.8215 6.98817ZM13.9998 3.5465C13.3582 3.5465 12.8332 3.06817 12.8332 2.4265V2.33317C12.8332 1.6915 13.3582 1.1665 13.9998 1.1665C14.6415 1.1665 15.1665 1.6915 15.1665 2.33317C15.1665 2.97484 14.6415 3.5465 13.9998 3.5465Z" fill="#EFDA1D"/>
</svg>
