<svg width="13" height="10" viewBox="0 0 13 10" fill="none" xmlns="http://www.w3.org/2000/svg">
<path opacity="0.6" d="M12.3809 3.76611C12.3809 3.5043 12.3373 3.19885 12.3373 2.84977C12.2936 2.50069 12.25 2.1516 12.2063 1.84616C12.1191 1.49708 11.9882 1.23527 11.7263 1.01709C11.5082 0.798913 11.2027 0.668003 10.8973 0.624368C9.89367 0.493462 8.41007 0.449829 6.40285 0.449829C4.39562 0.449829 2.86838 0.493462 1.9084 0.624368C1.60296 0.668003 1.29751 0.798913 1.07933 1.01709C0.861158 1.23527 0.686614 1.49708 0.599343 1.84616C0.512073 2.1516 0.468443 2.45705 0.468443 2.84977C0.424807 3.19885 0.424805 3.5043 0.424805 3.76611C0.424805 4.02792 0.424805 4.33337 0.424805 4.76972C0.424805 5.20607 0.424805 5.55516 0.424805 5.77333C0.424805 6.03515 0.468443 6.3406 0.468443 6.68968C0.512078 7.03876 0.555708 7.38784 0.599343 7.69329C0.686614 8.04237 0.817522 8.30418 1.07933 8.52236C1.29751 8.74054 1.60296 8.87144 1.9084 8.91508C2.91201 9.04598 4.39562 9.08962 6.40285 9.08962C8.41007 9.08962 9.9373 9.04598 10.8973 8.91508C11.2027 8.87144 11.5082 8.74054 11.7263 8.52236C11.9445 8.30418 12.1191 8.04237 12.2063 7.69329C12.2936 7.38784 12.3373 7.0824 12.3373 6.68968C12.3809 6.3406 12.3809 6.03515 12.3809 5.77333C12.3809 5.51152 12.3809 5.20607 12.3809 4.76972C12.3809 4.33337 12.3809 3.98428 12.3809 3.76611ZM8.71551 5.1188L5.26833 7.25693C5.22469 7.30057 5.13742 7.34421 5.05015 7.34421C4.96288 7.34421 4.91924 7.34421 4.83197 7.30057C4.70107 7.2133 4.6138 7.0824 4.6138 6.90786V2.58796C4.6138 2.41342 4.70107 2.28251 4.83197 2.19524C4.96288 2.10797 5.13742 2.10797 5.26833 2.19524L8.71551 4.33337C8.84642 4.42064 8.93369 4.55155 8.93369 4.68245C8.93369 4.81336 8.84642 5.03153 8.71551 5.1188Z" fill="white"/>
</svg>
